<?xml version="1.0" encoding="UTF-8"?>
<svg width="25px" height="22px" viewBox="0 0 25 22" version="1.1" xmlns="http://www.w3.org/2000/svg" xmlns:xlink="http://www.w3.org/1999/xlink">
    <!-- Generator: Sketch 59.1 (86144) - https://sketch.com -->
    <title>Fill 1</title>
    <desc>Created with Sketch.</desc>
    <g id="ios1.1" stroke="none" stroke-width="1" fill="none" fill-rule="evenodd">
        <path d="M20.9830533,12.9528265 L16.1493091,17.8681605 L14.2354335,15.9220314 L18.5776525,11.5064714 C19.0769086,10.9986663 19.0769086,10.1679156 18.5776525,9.6601953 L15.1790508,6.20425312 L13.2922056,8.12297986 L15.7116222,10.5833333 L8.54461389,17.8714691 L3.70769946,12.9528265 C2.42614642,11.6496194 2.42614642,9.51704725 3.70769946,8.21384013 L8.54461389,3.29519756 L10.4600746,5.24302334 L6.11727168,9.65926209 C5.61745932,10.1674914 5.61745932,10.999147 6.11727168,11.5074894 L9.51590117,14.9634881 L11.4044149,13.0430647 L8.98644435,10.5843514 L8.98644435,10.5823153 L16.1493091,3.29850619 L20.9830533,8.21384013 C22.2645229,9.51704725 22.2645229,11.6496194 20.9830533,12.9528265 M23.0124478,6.43673437 L17.0571083,0.380768989 C16.5578243,-0.126922996 15.7407939,-0.126922996 15.24151,0.380768989 L12.3469754,3.32424004 L9.45241307,0.380768989 C8.95312908,-0.126922996 8.13615432,-0.126922996 7.63689814,0.380768989 L1.68239293,6.43585772 C-0.560797643,8.7169792 -0.560797643,12.4496875 1.68239293,14.7308089 L7.63689814,20.7858977 C8.13615432,21.2935897 8.95312908,21.2935897 9.45241307,20.7858977 L12.3469754,17.8424266 L15.24151,20.7858977 C15.7407939,21.2935897 16.5578243,21.2935897 17.0571083,20.7858977 L23.0124478,14.7299323 C25.25511,12.4492633 25.25511,8.71737511 23.0124478,6.43673437" id="Fill-1" fill="#7BBCFF"></path>
    </g>
</svg>